<?xml version="1.0" encoding="UTF-8"?>
<svg xmlns="http://www.w3.org/2000/svg" xmlns:xlink="http://www.w3.org/1999/xlink" width="9px" height="16px" viewBox="0 0 9 9" version="1.1">
<g id="surface1">
<path style=" stroke:none;fill-rule:nonzero;fill:rgb(0%,0%,0%);fill-opacity:1;" d="M 9 4.601562 C 9 7.089844 7.214844 8.859375 4.574219 8.859375 C 2.042969 8.859375 0 6.910156 0 4.5 C 0 2.089844 2.042969 0.140625 4.574219 0.140625 C 5.804688 0.140625 6.84375 0.570312 7.640625 1.28125 L 6.394531 2.421875 C 4.765625 0.925781 1.738281 2.050781 1.738281 4.5 C 1.738281 6.019531 3.011719 7.253906 4.574219 7.253906 C 6.386719 7.253906 7.0625 6.015625 7.171875 5.375 L 4.574219 5.375 L 4.574219 3.875 L 8.929688 3.875 C 8.96875 4.097656 9 4.3125 9 4.601562 Z M 9 4.601562 "/>
</g>
</svg>
