<?xml version="1.0" encoding="UTF-8"?>
<svg xmlns="http://www.w3.org/2000/svg" xmlns:xlink="http://www.w3.org/1999/xlink" width="9px" height="16px" viewBox="0 0 9 10" version="1.1">
<g id="surface1">
<path style=" stroke:none;fill-rule:nonzero;fill:rgb(0%,0%,0%);fill-opacity:1;" d="M 2.015625 8.75 L 0.148438 8.75 L 0.148438 2.90625 L 2.015625 2.90625 Z M 1.082031 2.109375 C 0.484375 2.109375 0 1.632812 0 1.050781 C 0 0.46875 0.484375 0 1.082031 0 C 1.675781 0 2.160156 0.46875 2.160156 1.050781 C 2.160156 1.632812 1.675781 2.109375 1.082031 2.109375 Z M 8.996094 8.75 L 7.136719 8.75 L 7.136719 5.90625 C 7.136719 5.226562 7.121094 4.359375 6.164062 4.359375 C 5.195312 4.359375 5.046875 5.09375 5.046875 5.859375 L 5.046875 8.75 L 3.183594 8.75 L 3.183594 2.90625 L 4.972656 2.90625 L 4.972656 3.703125 L 5 3.703125 C 5.25 3.246094 5.855469 2.761719 6.765625 2.761719 C 8.652344 2.761719 9 3.96875 9 5.539062 L 9 8.75 Z M 8.996094 8.75 "/>
</g>
</svg>
