<?xml version="1.0" encoding="UTF-8"?>
<svg xmlns="http://www.w3.org/2000/svg" xmlns:xlink="http://www.w3.org/1999/xlink" width="9px" height="16px" viewBox="0 0 9 12" version="1.1">
<g id="surface1">
<path style=" stroke:none;fill-rule:nonzero;fill:rgb(0%,0%,0%);fill-opacity:1;" d="M 4.78125 0.152344 C 2.375 0.152344 0 1.753906 0 4.351562 C 0 6 0.929688 6.9375 1.492188 6.9375 C 1.722656 6.9375 1.855469 6.289062 1.855469 6.109375 C 1.855469 5.890625 1.300781 5.425781 1.300781 4.519531 C 1.300781 2.632812 2.734375 1.296875 4.589844 1.296875 C 6.1875 1.296875 7.367188 2.207031 7.367188 3.871094 C 7.367188 5.117188 6.871094 7.449219 5.253906 7.449219 C 4.667969 7.449219 4.167969 7.027344 4.167969 6.425781 C 4.167969 5.539062 4.789062 4.679688 4.789062 3.765625 C 4.789062 2.214844 2.585938 2.496094 2.585938 4.371094 C 2.585938 4.765625 2.636719 5.199219 2.8125 5.558594 C 2.488281 6.953125 1.828125 9.027344 1.828125 10.460938 C 1.828125 10.902344 1.890625 11.339844 1.933594 11.78125 C 2.011719 11.871094 1.972656 11.863281 2.09375 11.816406 C 3.277344 10.199219 3.234375 9.882812 3.769531 7.765625 C 4.058594 8.316406 4.800781 8.609375 5.394531 8.609375 C 7.882812 8.609375 9 6.183594 9 4 C 9 1.671875 6.988281 0.152344 4.78125 0.152344 Z M 4.78125 0.152344 "/>
</g>
</svg>
