<?xml version="1.0" encoding="UTF-8"?>
<svg xmlns="http://www.w3.org/2000/svg" xmlns:xlink="http://www.w3.org/1999/xlink" width="9px" height="16px" viewBox="0 0 9 9" version="1.1">
<g id="surface1">
<path style=" stroke:none;fill-rule:nonzero;fill:rgb(0%,0%,0%);fill-opacity:1;" d="M 8.074219 2.667969 C 8.082031 2.746094 8.082031 2.828125 8.082031 2.90625 C 8.082031 5.34375 6.226562 8.15625 2.832031 8.15625 C 1.789062 8.15625 0.816406 7.851562 0 7.328125 C 0.148438 7.34375 0.292969 7.351562 0.445312 7.351562 C 1.308594 7.351562 2.101562 7.058594 2.734375 6.5625 C 1.925781 6.542969 1.246094 6.011719 1.011719 5.28125 C 1.125 5.300781 1.238281 5.3125 1.359375 5.3125 C 1.523438 5.3125 1.691406 5.289062 1.84375 5.25 C 1 5.078125 0.367188 4.335938 0.367188 3.4375 L 0.367188 3.414062 C 0.609375 3.550781 0.898438 3.636719 1.199219 3.648438 C 0.703125 3.316406 0.375 2.753906 0.375 2.113281 C 0.375 1.769531 0.46875 1.457031 0.628906 1.183594 C 1.535156 2.300781 2.902344 3.03125 4.429688 3.113281 C 4.402344 2.976562 4.386719 2.832031 4.386719 2.691406 C 4.386719 1.671875 5.207031 0.84375 6.230469 0.84375 C 6.761719 0.84375 7.242188 1.066406 7.578125 1.425781 C 7.996094 1.347656 8.394531 1.195312 8.75 0.980469 C 8.613281 1.410156 8.320312 1.769531 7.9375 2 C 8.308594 1.957031 8.667969 1.855469 9 1.714844 C 8.75 2.078125 8.433594 2.402344 8.074219 2.667969 Z M 8.074219 2.667969 "/>
</g>
</svg>
